<svg xmlns="http://www.w3.org/2000/svg" width="24" height="24" viewBox="0 0 448 512" fill="#25D366">
  <path d="M380.9 97.1C339.4 55.6 283.6 32 224 32 100.3 32 0 132.3 0 256c0 45.7 12.3 90.3 35.6 129.2L2.2 480l99.9-32.7c36.1 19.9 76.5 30.3 117.9 30.3h.1c123.7 0 224-100.3 224-224 0-59.6-23.6-115.4-65.1-156.9zM224 438.7c-35.3 0-69.8-9.5-99.8-27.4l-7.1-4.2-59.3 19.4 19.8-57.6-4.6-7.5c-21.4-34.9-32.7-75.1-32.7-115.4 0-119.1 96.9-216 216-216 57.7 0 111.9 22.5 152.7 63.3S440 198.3 440 256c0 119.1-96.9 216-216 216zm121.6-146.4c-6.6-3.3-39.1-19.3-45.2-21.5-6.1-2.2-10.6-3.3-15.1 3.3-4.4 6.6-17.2 21.5-21.1 25.9-3.9 4.4-7.8 5-14.4 1.7s-28.1-10.3-53.5-32.9c-19.8-17.7-33.1-39.5-36.9-46.1-3.9-6.6-.4-10.2 2.9-13.4 3-3 6.6-7.8 9.9-11.7 3.3-3.9 4.4-6.6 6.6-11.1s1.1-8.3-.6-11.6c-1.7-3.3-15.1-36.5-20.7-50.1-5.5-13.2-11.1-11.4-15.1-11.6-3.9-.2-8.3-.2-12.7-.2s-11.6 1.7-17.7 8.3c-6.1 6.6-23.2 22.7-23.2 55.3s23.8 64.2 27.1 68.5c3.3 4.4 46.7 71.1 113.2 99.7 15.8 6.8 28.1 10.9 37.7 14 15.8 5 30.1 4.3 41.5 2.6 12.6-1.9 39.1-16 44.6-31.5 5.5-15.5 5.5-28.8 3.9-31.5-1.6-2.6-6-4.3-12.6-7.6z"/>
</svg>
