<!-- phone.svg -->
<svg xmlns="http://www.w3.org/2000/svg" width="24" height="24" viewBox="0 0 512 512" fill="#007bff">
  <path d="M511.1 382.7c-1.5-14.7-7.7-28.4-17.8-38.5l-79.9-79.9c-21.3-21.3-55.9-21.3-77.2 0l-23.5 23.5c-4.7 4.7-11.6 6.3-17.8 4.1-17.3-6.1-54.3-27.3-89.6-62.6S124.2 194.5 118 177.1c-2.2-6.2-.6-13.1 4.1-17.8l23.5-23.5c21.3-21.3 21.3-55.9 0-77.2L65.7 3.6C55.6-6.5 41.9-12.7 27.3-11.2 12.3-.3 1.7 14.2.1 29.7c-.1.8-.1 1.7-.1 2.5C0 188.5 73.4 333.3 192.7 452.7 312 572 456.8 645.4 636.8 645.4c.8 0 1.7 0 2.5-.1 15.5-1.6 30-12.2 40.9-27.2 1.5-14.6-4.7-28.3-14.8-38.4L511.1 382.7z"/>
</svg>
